<?xml version="1.0" encoding="UTF-8" standalone="no"?>
<!-- Created with Inkscape (http://www.inkscape.org/) -->

<svg
   xmlns:dc="http://purl.org/dc/elements/1.1/"
   xmlns:cc="http://creativecommons.org/ns#"
   xmlns:rdf="http://www.w3.org/1999/02/22-rdf-syntax-ns#"
   xmlns:svg="http://www.w3.org/2000/svg"
   xmlns="http://www.w3.org/2000/svg"
   xmlns:sodipodi="http://sodipodi.sourceforge.net/DTD/sodipodi-0.dtd"
   xmlns:inkscape="http://www.inkscape.org/namespaces/inkscape"
   width="600mm"
   height="150mm"
   viewBox="0 0 600 150"
   version="1.1"
   id="svg8"
   inkscape:version="0.92.4 (5da689c313, 2019-01-14)"
   sodipodi:docname="mflogo.svg">
  <defs
     id="defs2" />
  <sodipodi:namedview
     id="base"
     pagecolor="#ffffff"
     bordercolor="#666666"
     borderopacity="1.0"
     inkscape:pageopacity="0.0"
     inkscape:pageshadow="2"
     inkscape:zoom="0.35"
     inkscape:cx="1199.5255"
     inkscape:cy="142.62348"
     inkscape:document-units="mm"
     inkscape:current-layer="layer1"
     showgrid="false"
     inkscape:window-width="1366"
     inkscape:window-height="715"
     inkscape:window-x="-8"
     inkscape:window-y="-8"
     inkscape:window-maximized="1" />
  <metadata
     id="metadata5">
    <rdf:RDF>
      <cc:Work
         rdf:about="">
        <dc:format>image/svg+xml</dc:format>
        <dc:type
           rdf:resource="http://purl.org/dc/dcmitype/StillImage" />
        <dc:title></dc:title>
      </cc:Work>
    </rdf:RDF>
  </metadata>
  <g
     inkscape:label="Camada 1"
     inkscape:groupmode="layer"
     id="layer1"
     transform="translate(0,-147)">
    <text
       xml:space="preserve"
       style="font-style:normal;font-weight:normal;font-size:81.95692444px;line-height:1.25;font-family:sans-serif;letter-spacing:0px;word-spacing:0px;fill:#000000;fill-opacity:1;stroke:none;stroke-width:0.26458335"
       x="39.379116"
       y="226.85753"
       id="text12"
       transform="scale(0.90486304,1.1051396)"><tspan
         sodipodi:role="line"
         id="tspan10"
         x="39.379116"
         y="226.85753"
         style="font-style:normal;font-variant:normal;font-weight:normal;font-stretch:normal;font-family:'Segoe Script';-inkscape-font-specification:'Segoe Script';fill:#00ffe0;stroke-width:0.26458335;fill-opacity:1">Madson Felix</tspan></text>
    <path
       style="opacity:0;fill:#f6ff89;fill-opacity:1;stroke:#004455;stroke-width:0.26458332"
       d="m 44.285669,196.73598 -9.94978,5.07049 c 6.08e-4,1.37647 -0.01185,2.753 -0.0067,4.12947 0.0016,1.57831 0.0059,3.15655 -0.02842,4.73459 -0.05086,1.77423 -0.135533,3.54982 -0.413412,5.30562 -0.244183,1.73852 -0.387638,3.47423 -0.294555,5.23224 0.0092,1.93474 0.02618,3.87193 -0.108519,5.80326 -0.201435,2.42483 -0.632161,4.81774 -1.267624,7.16804 -0.803018,3.29426 -1.481886,6.62818 -2.679938,9.81129 -1.149056,2.89189 -2.328473,5.77337 -3.568258,8.62738 -1.299848,2.82045 -2.728522,5.60154 -4.409034,8.21448 -2.089325,3.33129 -4.278021,6.60517 -6.584611,9.78959 l 10.263973,-4.45141 c 2.087829,-3.2718 4.26617,-6.48 6.348451,-9.75548 1.702125,-2.66025 3.165509,-5.50428 4.440039,-8.39742 1.192406,-2.87403 2.391823,-5.74803 3.49591,-8.65787 1.168191,-3.23355 1.739292,-6.62899 2.640148,-9.93634 0.685379,-2.42 1.100571,-4.88648 1.282091,-7.39077 0.08773,-1.96478 0.09636,-3.93146 0.100254,-5.89783 -0.124646,-1.7199 0.112641,-3.39195 0.363802,-5.08599 0.249594,-1.79579 0.310269,-3.6124 0.358634,-5.42292 0.0337,-1.59036 0.03179,-3.18119 0.03152,-4.77181 0.0017,-1.373 -0.01289,-2.74561 -0.01395,-4.11861 z"
       id="path44"
       inkscape:connector-curvature="0" />
    <path
       style="opacity:0;fill:#008080;fill-opacity:1;stroke:#004455;stroke-width:0.26458332"
       id="path47"
       d="m 44.192062,196.19835 c -1.239059,3.49 -2.244571,7.03395 -2.93603,10.67146 -0.488895,3.57858 -0.824447,7.17063 -1.436751,10.7321 -0.279094,2.20298 -0.758405,4.3669 -1.185688,6.54297 -0.207672,1.66313 -0.573538,3.29821 -0.827045,4.954 -0.158465,2.11472 -0.438473,4.1979 -1.026925,6.23748 -0.655079,2.02851 -1.11719,4.0976 -1.897026,6.08428 -0.685307,1.87192 -1.50741,3.68314 -2.157981,5.56783 -0.518938,2.04903 -1.38144,3.97522 -2.202172,5.91468 -0.844944,1.72793 -1.762755,3.41926 -2.669863,5.11512 -0.634664,1.09113 -1.28892,2.17054 -1.922814,3.2621 0,0 -10.190979,4.55608 -10.190979,4.55608 v 0 c 0.596723,-1.116 1.25867,-2.1973 1.940276,-3.26338 0.936193,-1.65493 1.759908,-3.36831 2.694103,-5.02377 0.885549,-1.88682 1.786405,-3.8074 2.285571,-5.83513 0.61972,-1.91036 1.377495,-3.74073 2.098837,-5.61322 0.81092,-1.96813 1.419133,-3.96447 1.961851,-6.02506 0.691261,-1.95176 0.97825,-3.98117 1.086774,-6.04554 0.18729,-1.68416 0.58615,-3.32091 0.77734,-5.00241 0.413213,-2.20332 1.05994,-4.35405 1.311884,-6.58849 0.662342,-3.57656 1.125426,-7.17209 1.539729,-10.78585 0.626248,-3.61502 1.58355,-7.13209 2.630131,-10.64552 0,0 10.126778,-4.80973 10.126778,-4.80973 z"
       inkscape:connector-curvature="0" />
    <path
       style="opacity:0;fill:#008080;fill-opacity:1;stroke:#004455;stroke-width:0.26458332"
       id="path854"
       d="m 63.129614,197.65046 c -0.469995,3.05167 -1.078076,6.07217 -1.785392,9.07664 -0.482381,2.59507 -1.347526,5.06965 -2.504734,7.43325 -1.357873,2.62539 -2.686206,5.26395 -4.147653,7.83396 -1.580409,2.51224 -2.91742,5.16602 -4.338889,7.76898 -1.2549,2.39891 -2.370219,4.86938 -3.635975,7.26176 -1.24791,2.26163 -2.651586,4.42605 -3.864134,6.70886 -1.067649,2.09365 -2.174499,4.16764 -3.014911,6.36533 -0.698342,1.56822 -1.05813,3.24737 -1.600468,4.86702 -0.59854,1.27515 -1.01751,2.5917 -1.35823,3.95422 -0.06467,0.20324 -0.129339,0.40647 -0.194008,0.60971 0,0 -10.10928,4.75219 -10.10928,4.75219 v 0 c 0.06816,-0.20014 0.136314,-0.40028 0.20447,-0.60042 0.512456,-1.30261 0.543944,-2.78541 1.353775,-3.98725 0.591185,-1.6348 0.981282,-3.32594 1.682364,-4.92496 0.796406,-2.26738 1.90832,-4.3831 3.002473,-6.51755 1.188112,-2.31282 2.553965,-4.50718 3.858903,-6.74733 1.404866,-2.31877 2.409783,-4.86924 3.670189,-7.26961 1.475491,-2.58799 2.755513,-5.28903 4.352184,-7.80594 1.532117,-2.48124 2.757225,-5.13014 4.102341,-7.71568 0.343262,-0.7076 0.762949,-1.37759 1.085445,-2.09489 0.739796,-1.6455 1.183518,-3.44024 1.631751,-5.17854 0.735822,-2.91276 1.407163,-5.85255 1.586365,-8.86044 0,0 10.023414,-4.92931 10.023414,-4.92931 z"
       inkscape:connector-curvature="0" />
    <path
       sodipodi:type="star"
       style="opacity:0;fill:#008080;fill-opacity:1;stroke:#004455;stroke-width:0.26458332"
       id="path900"
       sodipodi:sides="3"
       sodipodi:cx="36.685219"
       sodipodi:cy="259.53018"
       sodipodi:r1="68.669868"
       sodipodi:r2="34.334934"
       sodipodi:arg1="-0.94141921"
       sodipodi:arg2="0.10577834"
       inkscape:flatsided="true"
       inkscape:rounded="0"
       inkscape:randomized="0"
       d="M 77.107142,204.01785 64.549347,322.29276 -31.600832,252.27994 Z"
       inkscape:transform-center-x="13.932064"
       inkscape:transform-center-y="3.6251216" />
  </g>
</svg>
